<?xml version="1.0" standalone="no"?>
<!DOCTYPE svg PUBLIC "-//W3C//DTD SVG 20010904//EN"
 "http://www.w3.org/TR/2001/REC-SVG-20010904/DTD/svg10.dtd">
<svg version="1.0" xmlns="http://www.w3.org/2000/svg"
 width="256.000000pt" height="256.000000pt" viewBox="0 0 256.000000 256.000000"
 preserveAspectRatio="xMidYMid meet">
<metadata>
Created by potrace 1.14, written by Peter Selinger 2001-2017
</metadata>
<g transform="translate(0.000000,256.000000) scale(0.100000,-0.100000)"
fill="#000000" stroke="none">
<path d="M1140 2554 c-84 -11 -201 -39 -280 -66 -191 -68 -330 -156 -481 -307
-249 -248 -372 -542 -373 -891 -1 -162 12 -250 56 -390 63 -197 167 -371 308
-508 102 -101 120 -117 142 -125 10 -3 18 -11 18 -17 0 -6 5 -8 10 -5 6 3 13
-1 16 -9 3 -9 10 -13 15 -10 5 3 12 -2 15 -10 3 -9 9 -14 14 -11 4 2 17 -5 28
-16 12 -11 22 -17 22 -14 0 8 104 -46 111 -57 3 -5 9 -9 13 -8 11 3 71 -12 81
-21 6 -4 22 -10 35 -13 14 -3 39 -9 57 -15 17 -5 34 -7 37 -4 2 3 10 1 17 -3
20 -12 51 -14 279 -18 126 -1 220 1 227 7 7 5 19 7 27 4 7 -3 18 -1 22 3 5 5
24 10 42 12 19 1 36 6 38 10 3 5 9 6 14 3 10 -6 122 36 200 75 33 17 60 28 60
25 0 -3 10 3 22 14 11 11 24 18 28 16 5 -3 11 2 14 11 3 8 10 13 15 10 5 -3
12 1 15 10 3 8 10 12 16 9 5 -3 10 -1 10 5 0 6 8 14 18 17 22 8 40 24 142 125
141 137 245 311 308 508 44 141 57 228 56 390 -2 352 -123 642 -373 891 -185
185 -380 293 -631 350 -83 19 -331 33 -410 23z m-128 -664 c72 -27 146 -85
188 -148 30 -45 38 -51 61 -46 40 8 144 -12 204 -40 68 -31 140 -97 177 -162
l28 -51 63 -5 c120 -10 223 -83 279 -196 30 -59 33 -76 33 -152 0 -72 -4 -94
-29 -147 -35 -76 -104 -144 -184 -181 l-57 -27 -423 -3 c-288 -2 -441 0 -478
8 -145 30 -239 192 -190 330 15 41 15 46 0 55 -113 69 -184 154 -215 257 -70
231 76 479 311 528 63 13 170 4 232 -20z"/>
</g>
</svg>
